<?xml version="1.0" encoding="utf-8"?>
<!-- Generator: Adobe Illustrator 20.1.0, SVG Export Plug-In . SVG Version: 6.00 Build 0)  -->
<svg version="1.1" id="XMLID_1_" xmlns="http://www.w3.org/2000/svg" xmlns:xlink="http://www.w3.org/1999/xlink" x="0px" y="0px"
	 viewBox="0 0 96 96" enable-background="new 0 0 96 96" xml:space="preserve">
<g id="chronometer">
	<rect fill="none" width="96" height="96"/>
	<g>
		<path fill="#1A171B" d="M49.6538,50.3678c-1.1353-0.5156-2.4907-0.5022-3.6533,0.1692c-1.2622,0.7284-1.9619,2.0411-1.9849,3.399
			l-4.7422,2.7383c-0.957,0.5522-1.2842,1.7754-0.7324,2.7319c0.3711,0.6416,1.043,1.0005,1.7344,1.0005
			c0.3389,0,0.6836-0.0864,0.998-0.2686l4.6973-2.7124c1.2021,0.7103,2.7334,0.7856,4.0288,0.0378
			c1.125-0.6497,1.7998-1.7653,1.9531-2.961L74.9795,41.228c0.9473-0.5464,1.2803-1.7529,0.7471-2.708
			c-0.5322-0.9551-1.7324-1.3047-2.6973-0.7842L49.6538,50.3678z"/>
		<path fill="#1A171B" d="M48,78.1265c-1.1045,0-2,0.8955-2,2V84c0,1.1045,0.8955,2,2,2s2-0.8955,2-2v-3.8735
			C50,79.022,49.1045,78.1265,48,78.1265z"/>
		<path fill="#1A171B" d="M47.6152,29.874c1.1045,0,2-0.8955,2-2V24c0-1.1045-0.8955-2-2-2s-2,0.8955-2,2v3.874
			C45.6152,28.9785,46.5107,29.874,47.6152,29.874z"/>
		<path fill="#1A171B" d="M62.7695,75.6621c-0.5566-0.9526-1.7822-1.2764-2.7354-0.7188c-0.9541,0.5566-1.2764,1.7812-0.7197,2.7354
			l1.958,3.3545c0.3721,0.6367,1.041,0.9922,1.7295,0.9922c0.3418,0,0.6895-0.0884,1.0059-0.2734
			c0.9541-0.5566,1.2764-1.7812,0.7197-2.7354L62.7695,75.6621z"/>
		<path fill="#1A171B" d="M74.9727,67.4282l-3.3916-1.937c-0.9609-0.5474-2.1797-0.2139-2.7285,0.7451
			c-0.5479,0.959-0.2148,2.1807,0.7441,2.7285l3.3916,1.937c0.3135,0.1787,0.6543,0.2637,0.9902,0.2637
			c0.6943,0,1.3691-0.3623,1.7383-1.0088C76.2646,69.1978,75.9316,67.9761,74.9727,67.4282z"/>
		<path fill="#1A171B" d="M72.083,54.3301c0,1.1045,0.8955,2,2,2H78c1.1045,0,2-0.8955,2-2s-0.8955-2-2-2h-3.917
			C72.9785,52.3301,72.083,53.2256,72.083,54.3301z"/>
		<path fill="#1A171B" d="M60.0322,33.7173c0.3174,0.1851,0.6641,0.2734,1.0068,0.2734c0.6875,0,1.3574-0.3555,1.7295-0.9922
			l1.959-3.355c0.5566-0.9536,0.2344-2.1782-0.7188-2.7354c-0.9541-0.5566-2.1797-0.2358-2.7363,0.7188l-1.959,3.355
			C58.7568,31.9355,59.0791,33.1602,60.0322,33.7173z"/>
		<path fill="#1A171B" d="M33.2305,32.999c0.3721,0.6372,1.041,0.9927,1.7295,0.9927c0.3418,0,0.6895-0.0879,1.0059-0.2729
			c0.9541-0.5566,1.2764-1.7812,0.7197-2.7354l-1.958-3.356c-0.5566-0.9536-1.7812-1.2773-2.7354-0.7197
			c-0.9541,0.5566-1.2764,1.7812-0.7197,2.7354L33.2305,32.999z"/>
		<path fill="#1A171B" d="M21.0273,41.2319l3.3926,1.938c0.3135,0.1787,0.6543,0.2637,0.9902,0.2637
			c0.6943,0,1.3691-0.3623,1.7383-1.0083c0.5479-0.9595,0.2148-2.1812-0.7441-2.729l-3.3926-1.938
			c-0.9609-0.5479-2.1797-0.2134-2.7285,0.7446C19.7354,39.4624,20.0684,40.6841,21.0273,41.2319z"/>
		<path fill="#1A171B" d="M21.918,56.3311c1.1045,0,2-0.895,2-1.9995s-0.8945-2-1.999-2.0005l-3.918-0.001c-0.001,0-0.001,0-0.001,0
			c-1.1045,0-2,0.895-2,1.9995s0.8945,2,1.999,2.0005l3.918,0.001C21.918,56.3311,21.918,56.3311,21.918,56.3311z"/>
		<path fill="#1A171B" d="M24.4219,65.4912l-3.3936,1.937c-0.96,0.5474-1.293,1.769-0.7461,2.728
			c0.3691,0.647,1.0449,1.0093,1.7393,1.0093c0.3359,0,0.6768-0.085,0.9893-0.2637l3.3936-1.937
			c0.96-0.5474,1.293-1.769,0.7461-2.728C26.6035,65.2773,25.3809,64.9438,24.4219,65.4912z"/>
		<path fill="#1A171B" d="M35.9678,74.9429c-0.9551-0.5571-2.1787-0.2363-2.7363,0.7188l-1.959,3.355
			c-0.5566,0.9536-0.2344,2.1782,0.7188,2.7354c0.3174,0.1851,0.6641,0.2734,1.0068,0.2734c0.6875,0,1.3574-0.3555,1.7295-0.9922
			l1.959-3.355C37.2432,76.7246,36.9209,75.5,35.9678,74.9429z"/>
		<path fill="#1A171B" d="M82.75,24.5394l1.418,1.4176c0.375,0.3755,0.8838,0.5859,1.4141,0.5859s1.0391-0.2109,1.4141-0.5859
			l2.958-2.9585c0.7812-0.7812,0.7812-2.0474,0-2.8281l-7.3945-7.3945c-0.7812-0.7812-2.0469-0.7808-2.8281-0.0005l-2.959,2.9585
			c-0.375,0.3755-0.5859,0.8843-0.5859,1.4146s0.2109,1.0391,0.5859,1.4141l1.7354,1.735L76.0552,22.75
			c-6.3096-5.6679-14.3442-9.4466-23.2202-10.4645V9.5776h1.9727c1.1045,0,2-0.8955,2-2V2c0-1.1045-0.8955-2-2-2H40.8633
			c-1.1045,0-2,0.8955-2,2v5.5776c0,1.1045,0.8955,2,2,2h1.9717v2.7497c-8.6475,1.0608-16.479,4.7432-22.6763,10.236l-2.2661-2.2657
			l1.7354-1.7351c0.375-0.375,0.5859-0.8838,0.5859-1.4141c0-0.5308-0.2109-1.0391-0.5859-1.4146l-2.959-2.9585
			c-0.7812-0.7803-2.0469-0.7808-2.8281,0.0005l-7.3945,7.3945c-0.375,0.375-0.5859,0.8838-0.5859,1.4141
			c0,0.5308,0.2109,1.0391,0.5859,1.4146l2.959,2.9585c0.3906,0.3901,0.9023,0.5854,1.4141,0.5854s1.0234-0.1953,1.4141-0.5859
			l1.417-1.4172l2.3125,2.3121C9.7524,34.1734,6,43.6454,6,54.0004C6,77.1957,24.8003,96,48,96c23.1948,0,42-18.8043,42-41.9996
			c0-10.2525-3.6768-19.6419-9.7778-26.9332L82.75,24.5394z M48,90c-19.8506,0-36-16.1494-36-35.9996C12,34.1497,28.1494,18,48,18
			s36,16.1497,36,36.0004C84,73.8506,67.8506,90,48,90z"/>
	</g>
</g>
</svg>
