<?xml version="1.0" encoding="utf-8"?>
<!-- Generator: Adobe Illustrator 20.0.0, SVG Export Plug-In . SVG Version: 6.00 Build 0)  -->
<svg version="1.1" id="XMLID_1_" xmlns="http://www.w3.org/2000/svg" xmlns:xlink="http://www.w3.org/1999/xlink" x="0px" y="0px"
	 viewBox="0 0 98 48" enable-background="new 0 0 98 48" xml:space="preserve">
<g id="logo">
	<g>
		<polygon fill="#FFE000" points="91.6758,12 76.3443,35.4164 82.5919,35.4164 97.9217,12 		"/>
		<g>
			<path fill-rule="evenodd" clip-rule="evenodd" fill="#1D1D1B" d="M14.8946,18.3616c-1.8189-0.8261-3.8095-1.1312-5.7991-1.1312
				c-3.8434,0-7.7564,1.92-7.7564,6.2449c0,3.1569,1.9556,4.1169,3.9129,4.6322c1.9539,0.5153,3.9129,0.5831,3.9129,1.9562
				c0,0.96-1.169,1.3403-1.959,1.3403c-1.542,0-3.67-0.8944-4.9396-1.7861L0,33.9754C2.128,35.2796,4.5994,36,7.1054,36
				c4.083,0,8.3056-1.9223,8.3056-6.5534c0-3.2603-2.1991-4.6361-5.1159-5.2182c-0.8566-0.1712-2.8134-0.3424-2.8134-1.5443
				c0-0.8911,1.2374-1.1985,1.9567-1.1985c1.0645,0,2.4037,0.3413,3.3637,0.8555L14.8946,18.3616"/>
		</g>
		<g>
			<path fill-rule="evenodd" clip-rule="evenodd" fill="#1D1D1B" d="M38.0242,17.8121h-6.246v1.7149
				c-1.3063-1.542-3.4337-2.2969-5.4561-2.2969c-5.2181,0-8.8209,4.3215-8.8209,9.3679c0,5.043,3.6722,9.4018,8.8876,9.4018
				c2.0601,0,4.2242-0.791,5.3215-2.5382h0.0678v1.9562h6.246V17.8121 M27.9676,22.6511c2.541,0,4.0174,1.8189,4.0174,3.9796
				c0,2.2325-1.4764,3.9468-4.0174,3.9468c-2.5388,0-4.0152-1.7144-4.0152-3.9468C23.9524,24.47,25.4288,22.6511,27.9676,22.6511"/>
			<polygon fill-rule="evenodd" clip-rule="evenodd" fill="#1D1D1B" points="46.533,17.8123 39.6005,17.8123 48.7982,35.4179 
				52.8468,35.4179 57.205,25.7743 61.5626,35.4179 65.6134,35.4179 74.8101,17.8123 67.9126,17.8123 63.4838,27.3536 
				59.0578,17.8123 55.3539,17.8123 50.9256,27.3536 			"/>
			<rect x="76.3534" y="17.8121" fill="#1D1D1B" width="6.246" height="17.6056"/>
		</g>
	</g>
	<rect fill="none" width="98" height="48"/>
</g>
</svg>
