<?xml version="1.0" encoding="utf-8"?>
<svg version="1.1" id="XMLID_1_" xmlns="http://www.w3.org/2000/svg" xmlns:xlink="http://www.w3.org/1999/xlink" x="0px" y="0px"
	 viewBox="0 0 176.1526 43.1739" enable-background="new 0 0 176.1526 43.1739" xml:space="preserve">
<g id="logo">
	<polygon fill="#FFE000" points="164.9167,0 137.3367,42.124 148.5757,42.124 176.1526,0 	"/>
	<g>
		<path fill="#1D1D1B" d="M18.52,21.9979c-1.541-0.308-5.061-0.616-5.061-2.778c0-1.603,2.226-2.156,3.52-2.156
			c1.915,0,4.324,0.614,6.051,1.539l3.764-7.159c-3.272-1.486-6.853-2.035-10.432-2.035c-6.914,0-13.953,3.454-13.953,11.2339
			c0,5.679,3.518,7.406,7.039,8.333c3.515,0.927,7.039,1.049,7.039,3.519c0,1.727-2.103,2.4109-3.524,2.4109
			c-2.774,0-6.602-1.609-8.886-3.213L0,39.5319c3.828,2.346,8.274,3.642,12.782,3.642c7.345,0,14.941-3.458,14.941-11.789
			C27.723,25.5199,23.767,23.0449,18.52,21.9979z"/>
		<path fill="#1D1D1B" d="M57.1662,13.5404c-2.35-2.774-6.177-4.132-9.815-4.132c-9.387,0-15.868,7.774-15.868,16.852
			c0,9.072,6.606,16.913,15.988,16.913c3.7061,0,7.599-1.423,9.573-4.566h0.122v3.519h11.236v-31.671h-11.236V13.5404z
			 M50.3112,33.4194c-4.567,0-7.223-3.084-7.223-7.1c0-3.887,2.656-7.159,7.223-7.159c4.571,0,7.227,3.272,7.227,7.159
			C57.5382,30.3354,54.8822,33.4194,50.3112,33.4194z"/>
		<polygon fill="#1D1D1B" points="114.2018,27.6198 106.2398,10.4558 99.5768,10.4558 91.6108,27.6198 83.7088,10.4558 
			71.2378,10.4558 87.7838,42.1268 95.0668,42.1268 102.9068,24.7788 110.7458,42.1268 118.0328,42.1268 134.5768,10.4558 
			122.1688,10.4558 		"/>
		<rect x="137.353" y="10.4555" fill="#1D1D1B" width="11.236" height="31.671"/>
	</g>
</g>
</svg>
